<svg id="Capa_1" data-name="Capa 1" xmlns="http://www.w3.org/2000/svg" viewBox="0 0 425.35 296.69"><path d="M104.3,79.93l7.5,11,.38-.13c.28-2,.54-3.91.85-5.86.63-4,1.32-8,3.07-11.68a8.86,8.86,0,0,1,1.15-2c1.18-1.39,2.81-1.11,3.29.64a13.55,13.55,0,0,1,.35,3.55c0,4.12-.28,8.24-.15,12.35.22,6.77,1.36,13.37,4.47,19.49a25.68,25.68,0,0,0,5.14,6.89c.75.74,1.31.91,2.2.18,1.47-1.22,3.06-2.29,4.63-3.44-1-1.62-2-3.09-2.82-4.61-5-8.88-7.62-18.52-8.84-28.58a121.46,121.46,0,0,1,0-27.42,3.15,3.15,0,0,0-.46-1.87c-3-4.54-5.52-9.29-6.4-14.74a25.34,25.34,0,0,1,0-8.38,25.84,25.84,0,0,1,2.95-8.17,28.93,28.93,0,0,1,2.42-3.71L124,16.35a24.86,24.86,0,0,0-3.86,11.76,26.19,26.19,0,0,0,2.74,13c.86,1.79,1.89,3.49,3,5.53.19-.58.29-.81.35-1,.83-3.74,1.5-7.53,2.54-11.22a19,19,0,0,0,.56-8.47,20.66,20.66,0,0,0-1.87-5.36,28.88,28.88,0,0,0-1.62-3l1.34-.59a18.36,18.36,0,0,1,2,3,19.42,19.42,0,0,1,1.77,5A21.44,21.44,0,0,1,130.46,35c-1.13,4.16-1.84,8.43-2.75,12.65a2.54,2.54,0,0,0,.58,2.32c1.07,1.32,2.06,2.7,3.24,4.24.53-1.92.95-3.57,1.45-5.19a41.56,41.56,0,0,1,14.53-20.55,1.43,1.43,0,0,1,2.1.06,45.82,45.82,0,0,1,14.23,20.27,53.55,53.55,0,0,1,2.55,29c-1.1,5.73-3.9,10.62-7.44,15.14-5.19,6.63-11.43,12.18-18,17.4-.37.29-.74.6-1.31,1.07l5.51,6.18c1.15-1.21,2.08-2.31,3.13-3.28A54.94,54.94,0,0,1,161,105.61a1.9,1.9,0,0,0,1-1.24c.39-9.43,4.15-17.53,9.93-24.74,2.82-3.52,6-6.73,9-10.08.14-.14.27-.29.49-.55-.31-.43-.61-.89-.95-1.32-9.24-11.41-5.54-24.53.51-32,2.09-2.57,4.49-4.88,6.75-7.31.66-.71,1.23-.56,1.8.13,8.36,10.18,10.7,23.09.36,34.85-1.82,2.06-3.75,4-5.67,6.1a18.27,18.27,0,0,1,4.6,6.88,20.81,20.81,0,0,1,1,8.48c-.73,6.83-6.45,13.6-14.8,17.69l-.22-1.55a28,28,0,0,0,9.25-7.55c1.93-2.44,4.67-5.91,4.65-10.67a14.33,14.33,0,0,0-.65-4,18.53,18.53,0,0,0-5.3-8.42c-5.63,5.39-10.51,10.93-14.17,17.47a35.37,35.37,0,0,0-4.74,16.3l11-3.1.22,1.55c-.68.26-1.24.45-1.58.56-6.6,2.17-8.52,2.72-8.52,2.72a1.47,1.47,0,0,0-1,.66,1.6,1.6,0,0,0,.12,1.33c.29.66.62,1.3,1,1.94.53,1,.28,1.64-.68,2.28A44.82,44.82,0,0,0,151,125.09c-4.72,7.31-6,15.09-2.86,23.35a15.93,15.93,0,0,0,2,3.68,5.24,5.24,0,0,0,6.37,2,16.28,16.28,0,0,0,6.89-4.45c3.14-3.29,6.2-6.68,9.07-10.21a129.78,129.78,0,0,0,8.22-11.06,49.36,49.36,0,0,0,8.17-23.68,1.8,1.8,0,0,1,.81-1.09,13.28,13.28,0,0,1,1.89-.9c.51.6,1,1.23,1.53,1.8s1.14,1.1,1.75,1.68c.45-1.76,1-3.61,1.65-5.53a71.67,71.67,0,0,1,4.85-11l2.73-1.11q-3.12,6.69-6.23,13.39c0,.13-.71,2.8-1,4.41a1.31,1.31,0,0,0,.92,1.68c.78.3,1.73.69,2.89,1.17a2.05,2.05,0,0,1,1.29,1.06,2,2,0,0,1,.11,1.25,4.09,4.09,0,0,1-1.57-.51c-.62-.36-.82-.72-1.59-1.12-.51-.27-.95-.5-1.14-.37s-.05,1.51,2.12,5.81l-3.21-1.39a44.52,44.52,0,0,0-1.55-4.64c-.3-.76-.37-1-.51-1.16-1.27-1.12-2.61-2.17-4-3.28,0,.35-.08.69-.13,1.05-.15,1.2-.36,2.34-.6,3.41-.12.73-.31,1.81-.57,3.11,0,0-.21,1-.43,2-1.58,7-8.59,17.72-8.59,17.72-4,5.4-8.32,10.64-12.65,15.83a28.59,28.59,0,0,1-7.76,6.54,15.52,15.52,0,0,1-1.82.92c-4.28,1.78-7.83.69-10.17-3.33a24.62,24.62,0,0,1-3.11-15.15c.73-7.38,4.26-13.45,9.33-18.62a108.6,108.6,0,0,1,8.45-7.25c.6-.49.83-.81.39-1.54a20.62,20.62,0,0,1-1-2.32c-.33.15-.69.29-1,.46a51,51,0,0,0-14.53,11.06c-1,1.15-1.32,1.2-2.4.07-1.66-1.72-3.25-3.51-4.87-5.28-.29-.32-.56-.66-.88-1L133,116.33c-1.6,1.16-1.61,1.16-3.14-.16-4.86-4.19-7.53-9.65-9.11-15.74A69.85,69.85,0,0,1,118.91,80c.07-1.72.18-3.44.22-5.15,0-.74-.11-1.48-.17-2.21l-.35-.08a15.44,15.44,0,0,0-.8,1.35c-2,4.3-2.64,9-3.34,13.58-.28,1.86-.45,3.73-.75,5.59a4.64,4.64,0,0,1-.66,1.29c-.46-.25-1.08-.38-1.34-.76q-4.47-6.39-8.84-12.84a2.08,2.08,0,0,0-1.95-1.2c-1.51,0-3-.16-4.63-.26.68,2.36,1.31,4.62,2,6.86.41,1.35.86,2.67-1,3.41a3.08,3.08,0,0,0,.41.46c10.25,6.87,18.43,15.79,25.48,25.81a94,94,0,0,1,10.93,20.09c.64,1.66.55,1.85-1.12,2.44l-3,1c1.21,1.46,2.31,2.8,3.44,4.12,10.17,11.86,11.31,25.22,6.45,39.5a22.39,22.39,0,0,1-2.75,4.3,4.64,4.64,0,0,1-1,1,5.89,5.89,0,0,1-4.4.94l1.85-1.44a6.05,6.05,0,0,0,.87-.4,6.79,6.79,0,0,0,2.18-2.14,11.43,11.43,0,0,0,1.43-2.54c4.19-11.44,4-22.64-2.44-33.22-2-3.29-4.76-6.11-7.23-9.1a1.62,1.62,0,0,0-1.36-.22,65,65,0,0,1-31.25.18,61.25,61.25,0,0,1-18.69-7.64,21.57,21.57,0,0,1-6-5.44,2.36,2.36,0,0,0-2-1,55.43,55.43,0,0,1-15.79-2.67,29.73,29.73,0,0,1-12.68-8.51,24.34,24.34,0,0,1-3.23-5.17l1-2.35a23.27,23.27,0,0,0,1.94,4.1,18.24,18.24,0,0,0,6.41,6.66,37.5,37.5,0,0,0,8.37,4.06,41.79,41.79,0,0,0,13.73,2.12,6,6,0,0,0-.35-.85,53.22,53.22,0,0,0-5.67-8.77c-1.2-1.5-2.81-3.37-4.83-5.45l2.32-.26a12.33,12.33,0,0,1,1.52,1.44c.64.73.8,1.08,2,2.51.13.17.28.35.49.63a17,17,0,0,1,.93,1.43c1.57,2.61,3.34,5.08,4.88,7.7.78,1.32,1.69,2,3.26,1.77a11.39,11.39,0,0,1,1.48,0,28.42,28.42,0,0,1-4.53-8.56c1.36-.38,2,.1,2.45,1.35a20.88,20.88,0,0,0,4.51,7.17,1.68,1.68,0,0,1,.45,1.31c0,.25-.75.48-1.17.5-1.15.07-2.3,0-3.75,0,.4.52.62.86.89,1.16A27.16,27.16,0,0,0,82,133.45a63.56,63.56,0,0,0,43.06,5.36c.43-.1.85-.22,1.27-.35.06,0,.1-.11.27-.3-1.34-1.53-2.69-3.1-4.07-4.63s-2.82-3.07-4.27-4.55-2.94-2.95-4.48-4.34-3.13-2.75-4.76-4-3.24-2.47-4.94-3.61-3.5-2.24-5.32-3.24c-.77-.42-2.82-1.54-5.58-2.78-1.28-.57-2.87-1.28-5.06-2-1-.34-1.76-.57-2.36-.75-8.85-2.63-11.6-2.35-15.07-2.47-.07,0-.15,0-.33.12,0,.56,0,1.12,0,1.71a26,26,0,0,0,2.14,9.31l-1.92,0-1.74-6.05c-.22-3.13-.33-5.45-.33-6.21,0-1,.9-.83,1.58-.8a70.67,70.67,0,0,1,15.36,2.5c12.54,3.5,23,10.4,32.17,19.49,3.56,3.56,6.87,7.37,10.23,11.12a1.56,1.56,0,0,0,2.06.55c.76-.32,1.57-.54,2.45-.84a6.94,6.94,0,0,0-.25-1c-7.77-18-19.28-33-35.44-44.27A2.1,2.1,0,0,0,95.6,91a2,2,0,0,0-1.18.36,26.62,26.62,0,0,1-3.62,1.47A17.84,17.84,0,0,1,86,94.06c-5.4.93-11.52-.32-12.61-.55l-.66-2a23.23,23.23,0,0,0,13.1,1.32,22.78,22.78,0,0,0,7.83-3.13,7.93,7.93,0,0,0-.82-.59,52.42,52.42,0,0,0-21.22-6.3,24.08,24.08,0,0,0-8.88,1.09c-.44.14-.88.33-1.55.58a21.56,21.56,0,0,0,2.7,2.26c2.76,1.6,5.53,3.18,8.41,4.55,1.11.52,1.48,1,1.09,2.18A9.43,9.43,0,0,1,71.86,93a11.91,11.91,0,0,1-1.44-.74l-2.76-1.4a46.2,46.2,0,0,1-5.27-2.94,15.8,15.8,0,0,1-3-2.78c-1-1-.78-1.54.53-2.09,7-2.91,14-2.36,21.06-.46a59.21,59.21,0,0,1,13.76,5.55,1.66,1.66,0,0,0,1.44-.07,1.45,1.45,0,0,0,.38-1.28c-.59-2.2-1.33-4.36-1.92-6.56a1.91,1.91,0,0,0-1.8-1.55A31.37,31.37,0,0,1,81,74.35a20.24,20.24,0,0,1-8.53-10.79c-.51-1.49-.22-1.91,1.36-1.88,9.72.21,16.66,4.73,20.67,13.58.72,1.59,1.55,2.42,3.32,2.32a28.22,28.22,0,0,1,3.28.18c-.68-1.41-1.28-2.61-1.86-3.83-3.57-7.63-5.84-15.55-5.42-24.09a40,40,0,0,1,6-18.64c.63-1.06,1.3-.61,2-.08a28.22,28.22,0,0,1,10.28,15.51A43.82,43.82,0,0,1,112,67.89c-.8,3.45-2,6.81-3,10.22a2.12,2.12,0,0,1-.73,1.14,2.25,2.25,0,0,1-1.29.3A13.23,13.23,0,0,0,104.3,79.93Zm34.15,30c.51-.34.72-.45.9-.6A112.88,112.88,0,0,0,156,93.67c3.77-4.47,7-9.26,8.35-15.07A50.4,50.4,0,0,0,162.78,51a44.88,44.88,0,0,0-13.31-20.33c-.54-.47-1-.82-1.72-.19a40,40,0,0,0-13.43,20.15c-.52,1.84-.85,3.74-1.33,5.6a1.38,1.38,0,0,1-.72.93c-.31.08-.81-.23-1.07-.51A18.4,18.4,0,0,1,129.89,55c-.81-1.06-1.62-2.1-2.59-3.35-.09.63-.18.94-.19,1.25-.17,5.47-.59,10.95-.45,16.41.3,11.26,2.36,22.19,7.27,32.43C135.25,104.48,136.88,107.1,138.45,109.92ZM101,32.78a36.8,36.8,0,0,0-5.43,19.56c.13,8.17,2.63,15.71,6.33,22.9,1.64,3.18.66,2.51,4.17,2.53a1.33,1.33,0,0,0,1.46-1,62.54,62.54,0,0,0,3.73-15.46c.66-6.3.19-12.47-2.38-18.35A26,26,0,0,0,101,32.78Zm87.49-2.66c-1.9,2.07-3.79,4-5.54,6.07A25.92,25.92,0,0,0,176.81,52c-.32,6.14,2.34,11.08,6.22,15.94,2.38-2.51,4.84-4.75,6.88-7.33C198.12,50.22,195.82,38.91,188.5,30.12ZM74.55,63.63C76,69.85,85.93,76.87,93.14,76.79,90,68.62,82.69,63.5,74.55,63.63Z"/><path d="M78.37,164.8c-.67-1.56-1.28-3-1.88-4.42a41.34,41.34,0,0,1-3.11-11.29,1.87,1.87,0,0,0-1-1.12c-2.09-1.07-4.34-1.88-6.32-3.12a12.11,12.11,0,0,1-5.87-9.56c-.16-1.68.08-1.93,1.73-1.85a17.92,17.92,0,0,1,16.77,15.14c.4,2.45.74,4.9,1.17,7.34a6.57,6.57,0,0,0,.66,2.05c3.6,6.28,8.22,11.44,15.51,13.41a15.47,15.47,0,0,0,5,.37c2.33-.16,3.48-1.5,3.09-3.79a18.52,18.52,0,0,0-1.86-5.76c-1.78-3.21-4-6.19-5.91-9.3a12.23,12.23,0,0,1-1.47-2.85A1.64,1.64,0,0,1,97,147.84,9,9,0,0,1,99.61,149c4.82,3.08,9,6.78,11.28,12.23a11.59,11.59,0,0,0,1.71,2.73c1,1.21,1.63,1.44,2.89.56,2.41-1.68,4.68-3.58,7-5.4a13.59,13.59,0,0,1,2-1.66,2.3,2.3,0,0,1,1.94,0c.34.24.38,1.24.22,1.81a6.32,6.32,0,0,1-1.19,2.05q-3.78,4.66-7.62,9.27a9.27,9.27,0,0,0-2.13,4.86,7.78,7.78,0,0,0,.51,3.46c.43,1.07,1.18,2.08,4.1,4.14,3.67,2.59,5.77,4.07,9.12,4.63a15.65,15.65,0,0,0,4.16.14l2.55.5a6.24,6.24,0,0,1-1.46.75,8,8,0,0,1-2.9.4,13.94,13.94,0,0,1-3-.33c-4.3-.94-8.74-4.32-9.11-4.6-3.11-2.31-4.67-3.46-5.37-5.56-1.21-3.56.61-7.17,1.13-8a92.57,92.57,0,0,1,6-7.51,10.25,10.25,0,0,0,1.48-2.15c-1.12.93-2.18,1.94-3.37,2.76a30.38,30.38,0,0,1-4,2.35,2.93,2.93,0,0,1-3.79-.84,23.05,23.05,0,0,1-2.75-4.32c-2.43-5.1-6.49-8.53-11.24-11.29a1.52,1.52,0,0,0-1.1-.14c.35.63.67,1.27,1.07,1.87,1.83,2.76,3.77,5.46,5.5,8.29a18.78,18.78,0,0,1,2.75,7.49c.42,3.25-1.17,5.49-4.39,6-4.11.65-7.86-.53-11.35-2.58a32,32,0,0,1-10.57-10.78c-1.7-2.67-2-5.79-2.33-8.86-.41-3.58-1.19-7-3.56-9.89a16.33,16.33,0,0,0-10-6c-.53-.1-1.08-.09-1.75-.15a9.52,9.52,0,0,0,3.74,7.1A54.15,54.15,0,0,0,72.23,146c.63.33,1.38.45,2,.81a1.65,1.65,0,0,1,.83,1c.42,6.16,2.86,11.68,5.4,17.17.05.11.12.22.16.33.46,1.1.11,1.65-1.08,1.52q-3.69-.39-7.38-.9c-1.61-.22-3.22-.54-5-.85v7a85.19,85.19,0,0,1,17.69,3.28c31.52,9.38,43.75,33.08,43.91,33.45s.33.74.33.74c.17.38.32.72.44,1l-1.17,2.24c-2.32-3.75-11.13-17.62-22.69-25.92A77.52,77.52,0,0,0,97.84,182a71.81,71.81,0,0,0-15-5.81c-5.62-1.5-6.4-1-10.1-1.9a28.54,28.54,0,0,0-4.9-.28c-.89-.06-1.22.32-1.39,1.2a22.78,22.78,0,0,1-7.81,13.93,26.45,26.45,0,0,1-13.2,5.6c-3.11.47-6.28.57-9.43.75-1.48.09-1.77-.39-1.31-1.83,3.33-10.46,10.55-16.83,21-19.67a71,71,0,0,1,8.36-1.48c.86-.12,1.2-.39,1.21-1.23,0-1.8,0-3.6.1-5.4,0-1-.3-1.37-1.27-1.6a55.55,55.55,0,0,1-15.27-5.91,34.77,34.77,0,0,1-15.19-18.55C33,138.23,32.5,136.59,32,135c-.33-1.08,0-1.57,1.14-1.51,10.6.63,20,3.94,26.94,12.42a30.91,30.91,0,0,1,6.66,15.83c.15,1.14.55,1.64,1.71,1.79,2.9.38,5.77.88,8.66,1.32A10.41,10.41,0,0,0,78.37,164.8ZM34.15,135.28c.53,5.17,5.8,14,10.8,18.16,5.82,4.88,12.69,7.47,20.16,9.29C64,154.85,60.92,148.32,55,143.28S41.93,135.9,34.15,135.28Zm30.67,39.1c-10.77-1.33-27.84,10.48-28,19.56,3.07-.35,6.14-.53,9.15-1.07,5.4-1,10.25-3.09,13.91-7.37A22.19,22.19,0,0,0,64.82,174.38Z"/><path d="M151.1,201.64l-2,1.39c.25-2.08.52-4,.78-5.61.2-1.28.55-3.39,1.07-6,.4-2,.82-3.91,1-4.88a47.61,47.61,0,0,1,7.34-15.92,39.77,39.77,0,0,1,5.66-6c1.42-1.22,3-2.22,4.62-3.38-.62-1.37-1.2-2.81-1.92-4.19a1.38,1.38,0,0,1,.6-2.16q8.25-4.66,16.47-9.35c.34-.19.7-.36,1.17-.59-.81-1.08-1.54-2.12-2.33-3.1a1.84,1.84,0,0,1,.07-2.72c3.24-3.95,7.34-6.89,11.42-9.84,3.47-2.49,7-4.88,10.75-7.46-3.49-2.1-7.09-4-9.2-7.9a8.06,8.06,0,0,1,3.21,1.39,81.32,81.32,0,0,0,7.53,5.29c.29.19,1,0,1.4-.25a29.18,29.18,0,0,1,12.63-3.4,27.52,27.52,0,0,1,12.22,3.09c1.33.64,2.66,1.29,3.95,2,.41.23.94.69.94,1.06s-.51.85-.92,1.06c-9,4.84-18.08,5-27.07.19-2.24-1.21-3.79-1.15-5.74.33-5.44,4.13-11,8.1-16.48,12.19a29.64,29.64,0,0,0-2.78,2.82,1.07,1.07,0,0,0-.11,1.64c2.09,2.89,2.06,2.89,5.39,1.66,8.3-3.08,16.8-4.57,25.66-3.13a55.64,55.64,0,0,1,20,7.83c4.61,2.8,9.08,5.84,13.59,8.8,1.19.77,1.18,1.5,0,2-13.18,5.46-26.62,7-40.39,2.4a53.66,53.66,0,0,1-21.47-13.63,1.5,1.5,0,0,0-2.14-.38q-7.89,4.45-15.8,8.84c-.73.41-.92.84-.47,1.63.56,1,1,2.07,1.43,3,2.11-.54,4-1.18,6-1.53,6.38-1.09,12,.91,16.85,4.9a91.87,91.87,0,0,1,6.89,6.65c.88.88.72,1.59-.34,1.87-5.31,1.39-10.67,2.09-16.13.95a18.73,18.73,0,0,1-10.48-6.14c-1.16-1.31-2.3-2.65-3.59-4.13-.86.55-1.79,1.07-2.64,1.69-5.58,4.09-9.35,9.55-12.08,15.83A47.45,47.45,0,0,0,153.3,189,100.15,100.15,0,0,0,151.1,201.64Zm97-44.24a8.32,8.32,0,0,0-.76-.64c-3.65-2.38-7.27-4.81-11-7.09a57.07,57.07,0,0,0-19-7.82c-9.61-1.85-18.76-.06-27.68,3.53-.13.06-.22.2-.42.38,8,8.11,17.46,13.48,28.73,15.35C228.31,162.83,238.24,161.24,248.06,157.4Zm-49.12,13.48c-6.13-9-20-13.43-26.48-8.62,1.86,3.5,6.69,7.46,10.74,8.72C188.44,172.62,193.65,172.1,198.94,170.88Zm11-48.95c5.69,4.88,20.8,5.53,25.51,1.13C228.39,117.92,216.86,117.37,210,121.93Z"/><path d="M148.2,211.47c.05-.56.21-1.95.38-3.52.23-2.07.43-3.76.56-4.92l2-2.07c0,.43-.09.85-.12,1.26-.38,5.75-1.09,11.49-1.06,17.23a72.54,72.54,0,0,0,12.12,39.85,21.75,21.75,0,0,0,9.26,8.3,21,21,0,0,1,3.34,1.88,24,24,0,0,0,13.35,4.08c3.87.14,7.75.34,11.63.34q111.6,0,223.21,0a4.24,4.24,0,0,1,1.43.05c.39.16.68.6,1,.92a4.39,4.39,0,0,1-1,.79,3.35,3.35,0,0,1-1.19.05q-112.56,0-225.13,0c-5,0-9.9-.5-14.84-.91a17.34,17.34,0,0,1-7.41-2.6c-2.24-1.31-4.52-2.57-6.8-3.81a24.4,24.4,0,0,1-8.4-8.07,72.56,72.56,0,0,1-11.29-28.73c-.37-3.6-.1-4.87-.74-10.87A42,42,0,0,1,148.2,211.47Z"/><path d="M207.55,90.19c1-1.43,1.94-2.81,3-4C216.82,78.71,224.86,73.93,234,71c2.9-.92,6.55-2.61,11.34-2.44.57,0,1,.06,1.36.09a31.82,31.82,0,0,1,.18,7.53,34.71,34.71,0,0,1-2.4,9.41A40.82,40.82,0,0,1,234,100.29c-12,10.88-28.21,11.22-31.9,11.22l-1.4-2.31c2.31.12,23,.81,35.87-15.38a41.26,41.26,0,0,0,8.62-23.41,50.45,50.45,0,0,0-14.62,3.71,55.67,55.67,0,0,0-12.92,7.51c-4,3.11-6.92,7.24-10.06,11.51l-3.5-4.59c-.61,1.16-1.28,2.17-2.78,1.43,0-.1,0-.25.05-.32,1.66-1.87,1.22-3.51,0-5.59-6-10-5.11-19.87,1.22-29.44.7-1.06,1.36-1.14,1.9-.2,2.63,4.57,4.9,9.26,5.19,14.67a30.3,30.3,0,0,1-3.55,15.24c-.93,1.87-1,3.21.52,4.62A9.79,9.79,0,0,1,207.55,90.19Zm-4.07-33.57c-5.91,8-5.68,21.82.4,28.09C209.32,74.32,209.08,65.54,203.48,56.62Z"/><path d="M38,105.37c-.11,1.62,1.64,3.22-.58,4.56-.53-1.65-1.06-3.2-1.49-4.77a1.13,1.13,0,0,1,.08-1c.85-1.13,4.9-1,6.38-.93,6.3.15,12.32,1.24,17.38,5.39.21.18.4.37.61.57-1.26.85-2.19.46-3.35-.31C51.17,105,44.71,104.5,38,105.37Z"/><path d="M124.7,15.68l-.71.67c-.08-.09-.17-.14-.17-.2a11.47,11.47,0,0,1,0-2,1.36,1.36,0,0,1,.66-.93,1.06,1.06,0,0,1,1,.34,25.38,25.38,0,0,1,1.75,3.4c.12.29-.29.8-.45,1.21a3.62,3.62,0,0,1-.89-.62C125.44,17,125.12,16.38,124.7,15.68Z"/><path d="M128.06,212.32l1.47-1.75A57.85,57.85,0,0,1,132,239.7a47.76,47.76,0,0,1-3,10.48A40.74,40.74,0,0,1,120.88,263c-7.15,7.53-15.57,10-19.52,11.06a51.19,51.19,0,0,1-15.08,1.73c-17.25-.24-82.38-.53-84.36,0a1.87,1.87,0,0,1-1.18,0c-.11,0-.7-.29-.74-.75s.42-.77.72-.91a1.84,1.84,0,0,1,1.18-.08c2.4.57,63.22.71,86.15,0,4.53-.14,14.22-.54,23.75-6.2a37.24,37.24,0,0,0,8.91-7.26,38.14,38.14,0,0,0,8.38-16.39c2.69-10.22,1.2-19.75-.13-28.23-.1-.65-.19-1.18-.25-1.54"/></svg>